<svg width="22" height="15" viewBox="0 0 22 15" fill="none" xmlns="http://www.w3.org/2000/svg">
<g clip-path="url(#clip0_509_1518)">
<path d="M8.57779 2.00304C8.58737 2.10065 8.52375 2.14604 8.48065 2.19901C8.1386 2.6212 7.95594 3.11452 7.99289 3.68425C8.01341 4.00582 7.89369 4.10266 7.61868 4.09964C6.70655 4.09005 5.79441 4.09005 4.88228 4.09964C3.47303 4.11174 2.3511 5.01591 2.0501 6.54352C1.65127 8.55689 2.46467 10.2774 4.28916 10.7518C4.43333 10.7874 4.58065 10.8049 4.72836 10.8041C6.43861 10.8078 8.14886 10.8041 9.85911 10.8131C10.1382 10.8131 10.2012 10.7443 10.0862 10.4568C9.92 10.0429 9.7736 9.61843 9.62515 9.19623C9.58137 9.07139 9.51296 8.92612 9.65251 8.81792C9.77292 8.72637 9.87143 8.82246 9.95968 8.89359C11.0351 9.80708 12.1098 10.7211 13.1838 11.6356C13.4007 11.8194 13.3672 11.9776 13.1681 12.1463C12.1014 13.0512 11.0353 13.9574 9.96994 14.8648C9.87485 14.9458 9.76471 15.0638 9.63746 14.9405C9.51022 14.8172 9.58684 14.6817 9.63062 14.5561C9.77907 14.1332 9.92479 13.7095 10.0903 13.2948C10.2005 13.021 10.1355 12.9559 9.87621 12.9574C8.23437 12.967 6.59253 12.9682 4.95069 12.9612C2.73967 12.9506 0.914493 11.5743 0.261861 9.24844C-0.69588 5.82473 1.03147 2.52587 4.18928 1.97959C4.57922 1.91225 4.98489 1.9463 5.38372 1.94478C6.32915 1.94024 7.27481 1.94024 8.22069 1.94478C8.34178 1.95311 8.47107 1.90695 8.57779 2.00304Z" fill="white"/>
<path d="M13.418 13.0133C13.4056 12.8907 13.4823 12.84 13.5322 12.778C13.8537 12.3717 14.0391 11.9026 13.9994 11.3608C13.9707 10.9727 14.1274 10.8932 14.4373 10.8985C15.3266 10.9137 16.2159 10.9091 17.1053 10.8985C18.5172 10.8872 19.6364 9.99059 19.9422 8.4607C20.3479 6.44128 19.5147 4.71014 17.7107 4.2486C17.5552 4.21117 17.3964 4.1929 17.2373 4.19412C15.5393 4.19034 13.8414 4.19942 12.1435 4.18353C11.8206 4.18353 11.8096 4.29551 11.9191 4.57092C12.0833 4.98555 12.231 5.40925 12.3809 5.83145C12.4226 5.94797 12.4698 6.07886 12.3494 6.1742C12.229 6.26953 12.1312 6.17874 12.0415 6.10308C10.9661 5.19009 9.89141 4.27609 8.81737 3.36108C8.60599 3.18252 8.6183 3.02439 8.82285 2.85112C9.88913 1.94318 10.955 1.03675 12.0203 0.131827C12.1154 0.0516255 12.2221 -0.0694338 12.3535 0.0448159C12.4848 0.159066 12.4123 0.30131 12.3679 0.426909C12.2228 0.837754 12.0805 1.25011 11.9177 1.65263C11.8021 1.93939 11.8363 2.03775 12.1476 2.03473C13.7997 2.02035 15.4525 1.99992 17.1046 2.03473C19.1322 2.0771 20.6763 3.094 21.517 5.13687C22.838 8.34872 21.4021 12.3248 17.8783 13.0004C17.6185 13.0391 17.3562 13.0533 17.0943 13.0428C15.9893 13.0428 14.884 13.0428 13.7785 13.0428C13.656 13.0473 13.5301 13.0715 13.418 13.0133Z" fill="white"/>
</g>
<defs>
<clipPath id="clip0_509_1518">
<rect width="22" height="15" fill="white"/>
</clipPath>
</defs>
</svg>
