<svg width="19" height="15" viewBox="0 0 19 15" fill="none" xmlns="http://www.w3.org/2000/svg">
<g clip-path="url(#clip0_509_1523)">
<path d="M3.00271 4.90787C3.79113 4.90787 4.58024 4.9269 5.36934 4.90153C5.89676 4.88462 6.30517 5.0946 6.65949 5.47298C7.2924 6.15012 7.77587 6.9393 8.24378 7.74257C8.97947 9.01723 9.64956 10.3384 10.6206 11.4496C11.1574 12.064 11.7518 12.5904 12.5328 12.844C12.9696 12.985 13.4172 12.9998 13.8683 12.9998C14.3071 12.9998 14.7473 13.0096 15.1855 12.9927C15.4837 12.9807 15.5912 13.1195 15.5837 13.4113C15.5684 13.834 15.5574 14.2568 15.5506 14.6796C15.5506 14.7916 15.5242 14.9375 15.6507 14.9896C15.7602 15.0354 15.8312 14.9191 15.9036 14.8487C16.6839 14.1041 17.4631 13.3601 18.2411 12.6164C18.448 12.4184 18.6576 12.2226 18.8679 12.0281C19.037 11.8724 19.0492 11.7307 18.872 11.5609C17.8861 10.6167 16.9027 9.66971 15.9218 8.71988C15.8481 8.64942 15.7629 8.55359 15.6588 8.59093C15.5283 8.63744 15.5499 8.7847 15.5513 8.89533C15.5567 9.32938 15.5634 9.76342 15.5864 10.1968C15.6013 10.4786 15.5087 10.6062 15.2226 10.5984C14.6716 10.5843 14.1191 10.6026 13.5674 10.5914C12.9257 10.5773 12.5287 10.1397 12.1609 9.66759C11.3698 8.65083 10.8085 7.48327 10.1384 6.38335C9.42913 5.21227 8.73131 4.0278 7.61561 3.20621C7.04153 2.78343 6.41472 2.53823 5.69526 2.54316C3.96063 2.5549 2.2251 2.55349 0.488667 2.53893C0.150577 2.53893 0.0308926 2.63546 0.0106072 3.01032C-0.0171163 3.51765 0.0518542 4.01934 0.0254831 4.52174C0.00993098 4.81557 0.123529 4.91492 0.398059 4.9121C1.26763 4.90153 2.13517 4.90787 3.00271 4.90787Z" fill="#DC7E3A"/>
<path d="M14.2666 2.00551C13.5789 1.99142 12.898 1.99705 12.2381 2.26551C11.4463 2.58823 10.837 3.13924 10.3231 3.82414C10.2773 3.87717 10.2502 3.94499 10.2465 4.01629C10.2428 4.08758 10.2627 4.15804 10.3028 4.21591C10.6599 4.79793 11.0155 5.38135 11.38 5.95914C11.5071 6.16066 11.6423 6.11205 11.737 5.9225C11.9047 5.58499 12.1576 5.31582 12.378 5.01988C12.5106 4.83582 12.6821 4.68613 12.8793 4.58249C13.0764 4.47885 13.2939 4.42405 13.5147 4.42236C14.0996 4.40404 14.6852 4.42236 15.2728 4.4132C15.5351 4.40897 15.6109 4.54708 15.5838 4.78665C15.5243 5.24395 15.5649 5.70266 15.5885 6.15644C15.5933 6.24381 15.5561 6.35937 15.6656 6.40235C15.7515 6.43547 15.8096 6.35584 15.8685 6.30159C16.8643 5.35223 17.8603 4.40287 18.8565 3.45351C19.0682 3.25339 19.0019 3.09415 18.8261 2.92786C17.98 2.13445 17.1363 1.34034 16.2951 0.54553C16.1457 0.404605 16.0037 0.252406 15.8536 0.110777C15.79 0.0501795 15.7238 -0.04283 15.623 0.0234046C15.548 0.0727282 15.5554 0.164329 15.5642 0.248884C15.6129 0.718162 15.5534 1.18603 15.5493 1.6539C15.5493 1.90968 15.4533 2.01608 15.2112 2.00621C14.8934 1.99705 14.5783 2.00551 14.2666 2.00551Z" fill="#DC7E3A"/>
<path d="M3.16602 12.4576C4.03356 12.4576 4.9011 12.4716 5.76796 12.454C6.7349 12.435 7.55511 12.0383 8.25428 11.3478C8.4497 11.1547 8.48351 10.9807 8.33272 10.7348C8.01086 10.2112 7.70657 9.67782 7.40635 9.13878C7.27111 8.90062 7.16563 8.90203 7.01484 9.11976C6.53408 9.81522 5.91672 10.1443 5.05392 10.1112C3.52372 10.0534 1.99014 10.1013 0.455889 10.0886C0.142817 10.0886 0.0271899 10.1851 0.00555215 10.5213C-0.0316378 11.0849 0.0542372 11.6486 0.0339517 12.2123C0.023809 12.478 0.221254 12.4597 0.390975 12.4597C1.31734 12.4592 2.24236 12.4585 3.16602 12.4576Z" fill="#DC7E3A"/>
</g>
<defs>
<clipPath id="clip0_509_1523">
<rect width="19" height="15" fill="white" transform="matrix(1 0 0 -1 0 15)"/>
</clipPath>
</defs>
</svg>
